<svg height="512" viewBox="0 0 128 128" width="512" xmlns="http://www.w3.org/2000/svg"><g><path d="m1.75 70.874h12v55.373h-12z" fill="#54528e"/><path d="m69.094 90.311h3.228a4.917 4.917 0 0 0 4.872-4.253l.051-.373a4.917 4.917 0 0 0 -4.872-5.585h-15l3.127-20.436a7 7 0 0 0 -3.137-6.948l-4.988-3.2-4.317 11.202a31.193 31.193 0 0 1 -23.058 19.382h-11.25v36.915h9.476a8.373 8.373 0 0 1 6.838 3.542 8.373 8.373 0 0 0 6.836 3.543h30.811a4.918 4.918 0 0 0 4.872-4.252 4.918 4.918 0 0 0 -4.872-5.583h1.342a4.918 4.918 0 0 0 4.872-4.252l.292-2.144a4.918 4.918 0 0 0 -4.872-5.583h1.343a4.918 4.918 0 0 0 4.872-4.252l.292-2.144a4.917 4.917 0 0 0 -4.872-5.582z" fill="#fed9b6"/><path d="m121.25 1.747h-52.125a5 5 0 0 0 -5 5v34.659a5 5 0 0 0 5 5h16.5v14.219l19.125-14.219h16.5a5 5 0 0 0 5-5v-34.659a5 5 0 0 0 -5-5z" fill="#54528e"/><path d="m95.125 15.032 2.939 5.954 6.572.955-4.756 4.636 1.123 6.545-5.878-3.09-5.878 3.09 1.123-6.545-4.756-4.636 6.572-.955z" fill="#fff06d"/></g></svg>